# File produced by Open Asset Import Library (http://www.assimp.sf.net)
# (assimp v6.0.0)

mtllib model_crate.mtl

# 24 vertex positions
v -1.49300003 0 -1.5
v 1.49300003 0 -1.5
v 1.49300003 0 1.5
v -1.49300003 0 1.5
v 1.49300003 3.03699994 -1.5
v 1.49300003 3.03699994 1.5
v 1.49300003 0 1.5
v 1.49300003 0 -1.5
v -1.49300003 3.03699994 -1.5
v 1.49300003 3.03699994 -1.5
v 1.49300003 0 -1.5
v -1.49300003 0 -1.5
v -1.49300003 3.03699994 1.5
v -1.49300003 3.03699994 -1.5
v -1.49300003 0 -1.5
v -1.49300003 0 1.5
v 1.49300003 3.03699994 1.5
v -1.49300003 3.03699994 1.5
v -1.49300003 0 1.5
v 1.49300003 0 1.5
v 1.49300003 3.03699994 1.5
v 1.49300003 3.03699994 -1.5
v -1.49300003 3.03699994 -1.5
v -1.49300003 3.03699994 1.5

# 4 UV coordinates
vt 0.970000029 0.0289999843 0
vt 0.970000029 0.970000029 0
vt 0.0329999998 0.970000029 0
vt 0.0329999998 0.0289999843 0

# 6 vertex normals
vn 0 -3.03600001 0
vn 3.03600001 0 0
vn 0 0 -3.03600001
vn -3.03600001 0 0
vn 0 0 3.03600001
vn 0 3.03600001 0

# Mesh '' with 6 faces
usemtl C4DMAT_Material__418
f  1/1/1 2/2/1 3/3/1 4/4/1
f  5/2/2 6/3/2 7/4/2 8/1/2
f  9/2/3 10/3/3 11/4/3 12/1/3
f  13/2/4 14/3/4 15/4/4 16/1/4
f  17/2/5 18/3/5 19/4/5 20/1/5
f  21/4/6 22/1/6 23/2/6 24/3/6

